<svg xmlns="http://www.w3.org/2000/svg" width="440" height="170" viewBox="0 0 440 170" role="img" aria-label="Top languages"><rect x="0.5" y="0.5" width="439" height="169" rx="10" fill="none" stroke="#d1d9e0"/><text x="24" y="34" font-family="ui-sans-serif,-apple-system,BlinkMacSystemFont,'Segoe UI',Helvetica,Arial,sans-serif" font-size="15" font-weight="600" fill="#1f2328">Top languages</text><clipPath id="bar"><rect x="24" y="52" width="392" height="10" rx="5.0"/></clipPath><rect x="24" y="52" width="392" height="10" rx="5.0" fill="#eaeef2"/><g clip-path="url(#bar)"><rect x="24.00" y="52" width="225.04" height="10" fill="#DA5B0B"/><rect x="249.04" y="52" width="91.50" height="10" fill="#3178c6"/><rect x="340.54" y="52" width="22.02" height="10" fill="#e34c26"/><rect x="362.56" y="52" width="20.94" height="10" fill="#f1e05a"/><rect x="383.50" y="52" width="14.95" height="10" fill="#663399"/><rect x="398.45" y="52" width="7.21" height="10" fill="#3572A5"/><rect x="405.66" y="52" width="10.34" height="10" fill="#59636e"/></g><circle cx="29" cy="88" r="5" fill="#DA5B0B"/><text x="42" y="92" font-family="ui-sans-serif,-apple-system,BlinkMacSystemFont,'Segoe UI',Helvetica,Arial,sans-serif" font-size="12" fill="#1f2328">Jupyter Notebook</text><text x="200" y="92" font-family="ui-sans-serif,-apple-system,BlinkMacSystemFont,'Segoe UI',Helvetica,Arial,sans-serif" font-size="12" text-anchor="end" fill="#59636e">57.4%</text><circle cx="237" cy="88" r="5" fill="#3178c6"/><text x="250" y="92" font-family="ui-sans-serif,-apple-system,BlinkMacSystemFont,'Segoe UI',Helvetica,Arial,sans-serif" font-size="12" fill="#1f2328">TypeScript</text><text x="408" y="92" font-family="ui-sans-serif,-apple-system,BlinkMacSystemFont,'Segoe UI',Helvetica,Arial,sans-serif" font-size="12" text-anchor="end" fill="#59636e">23.3%</text><circle cx="29" cy="112" r="5" fill="#e34c26"/><text x="42" y="116" font-family="ui-sans-serif,-apple-system,BlinkMacSystemFont,'Segoe UI',Helvetica,Arial,sans-serif" font-size="12" fill="#1f2328">HTML</text><text x="200" y="116" font-family="ui-sans-serif,-apple-system,BlinkMacSystemFont,'Segoe UI',Helvetica,Arial,sans-serif" font-size="12" text-anchor="end" fill="#59636e">5.6%</text><circle cx="237" cy="112" r="5" fill="#f1e05a"/><text x="250" y="116" font-family="ui-sans-serif,-apple-system,BlinkMacSystemFont,'Segoe UI',Helvetica,Arial,sans-serif" font-size="12" fill="#1f2328">JavaScript</text><text x="408" y="116" font-family="ui-sans-serif,-apple-system,BlinkMacSystemFont,'Segoe UI',Helvetica,Arial,sans-serif" font-size="12" text-anchor="end" fill="#59636e">5.3%</text><circle cx="29" cy="136" r="5" fill="#663399"/><text x="42" y="140" font-family="ui-sans-serif,-apple-system,BlinkMacSystemFont,'Segoe UI',Helvetica,Arial,sans-serif" font-size="12" fill="#1f2328">CSS</text><text x="200" y="140" font-family="ui-sans-serif,-apple-system,BlinkMacSystemFont,'Segoe UI',Helvetica,Arial,sans-serif" font-size="12" text-anchor="end" fill="#59636e">3.8%</text><circle cx="237" cy="136" r="5" fill="#3572A5"/><text x="250" y="140" font-family="ui-sans-serif,-apple-system,BlinkMacSystemFont,'Segoe UI',Helvetica,Arial,sans-serif" font-size="12" fill="#1f2328">Python</text><text x="408" y="140" font-family="ui-sans-serif,-apple-system,BlinkMacSystemFont,'Segoe UI',Helvetica,Arial,sans-serif" font-size="12" text-anchor="end" fill="#59636e">1.8%</text><circle cx="29" cy="160" r="5" fill="#59636e"/><text x="42" y="164" font-family="ui-sans-serif,-apple-system,BlinkMacSystemFont,'Segoe UI',Helvetica,Arial,sans-serif" font-size="12" fill="#1f2328">Other</text><text x="200" y="164" font-family="ui-sans-serif,-apple-system,BlinkMacSystemFont,'Segoe UI',Helvetica,Arial,sans-serif" font-size="12" text-anchor="end" fill="#59636e">2.6%</text></svg>